<?xml version="1.0" encoding="UTF-8"?>
<svg version="1.1" xmlns="http://www.w3.org/2000/svg" width="500" height="500">
<path d="M0 0 C0.495 0.4125 0.99 0.825 1.5 1.25 C3.56063401 0.25202478 5.54967412 -0.78015238 7.5078125 -1.96875 C18.98622628 -8.91509634 30.25539624 -8.62713132 43.015625 -5.73828125 C49.56916515 -3.87948567 55.14087111 -0.92090574 60.5 3.25 C59.98613015 6.07628416 59.34741296 8.73534415 58.484375 11.48046875 C55.39783965 23.29993944 57.45645209 34.20640042 63.4375 44.625 C66.18323958 48.11957765 69.15581169 51.17797442 72.63183594 53.95019531 C75.23983968 57.16078016 74.95776541 59.3263101 74.890625 63.421875 C74.88063477 64.6706543 74.87064453 65.91943359 74.86035156 67.20605469 C74.82393555 68.78805664 74.78751953 70.37005859 74.75 72 C74.6675 77.0325 74.585 82.065 74.5 87.25 C60.97 87.25 47.44 87.25 33.5 87.25 C33.45101562 83.66382813 33.40203125 80.07765625 33.3515625 76.3828125 C33.29759916 72.92101762 33.24027339 69.4592937 33.18261719 65.99755859 C33.14426353 63.58615372 33.1094221 61.17469038 33.078125 58.76318359 C33.03261297 55.30284687 32.97459596 51.84291492 32.9140625 48.3828125 C32.90251129 47.29944611 32.89096008 46.21607971 32.87905884 45.09988403 C32.85918915 44.0989975 32.83931946 43.09811096 32.81884766 42.06689453 C32.80552399 41.18309113 32.79220032 40.29928772 32.7784729 39.38870239 C32.69330996 37.0367175 32.69330996 37.0367175 30.5 35.25 C26.91656024 35.08322718 26.91656024 35.08322718 23.5 35.25 C22.75931248 38.58707256 22.35912405 41.71642545 22.29467773 45.13208008 C22.27473251 46.07267776 22.25478729 47.01327545 22.23423767 47.9823761 C22.21752518 48.9846373 22.20081268 49.9868985 22.18359375 51.01953125 C22.1524221 52.57374031 22.1524221 52.57374031 22.12062073 54.15934753 C22.0553787 57.46033265 21.99635821 60.76139549 21.9375 64.0625 C21.89429068 66.30404441 21.85067562 68.54558103 21.80664062 70.78710938 C21.6989619 76.27466117 21.59969969 81.76227424 21.5 87.25 C8.63 87.25 -4.24 87.25 -17.5 87.25 C-17.56058594 83.91519531 -17.62117188 80.58039063 -17.68359375 77.14453125 C-17.74542046 73.91102922 -17.80879271 70.67756092 -17.87231445 67.4440918 C-17.91559833 65.19867968 -17.95727801 62.95323604 -17.99731445 60.70776367 C-18.05517557 57.47825627 -18.11882451 54.24890659 -18.18359375 51.01953125 C-18.20030624 50.01727005 -18.21701874 49.01500885 -18.23423767 47.9823761 C-18.2641555 46.57147957 -18.2641555 46.57147957 -18.29467773 45.13208008 C-18.31022202 44.30823318 -18.3257663 43.48438629 -18.34178162 42.63557434 C-18.50968641 40.10395089 -18.95074348 37.72460474 -19.5 35.25 C-22.91642759 34.99984127 -22.91642759 34.99984127 -26.5 35.25 C-28.64237343 38.46356015 -28.7616525 39.38047064 -28.81884766 43.08862305 C-28.83871735 44.0694133 -28.85858704 45.05020355 -28.87905884 46.06071472 C-28.89638565 47.64521172 -28.89638565 47.64521172 -28.9140625 49.26171875 C-28.93342865 50.34508011 -28.9527948 51.42844147 -28.9727478 52.54463196 C-29.03258344 56.00884093 -29.0789453 59.47308305 -29.125 62.9375 C-29.16317607 65.28451979 -29.20222758 67.63152552 -29.2421875 69.97851562 C-29.33993786 75.73560439 -29.4194761 81.49254119 -29.5 87.25 C-43.03 87.25 -56.56 87.25 -70.5 87.25 C-70.56319604 80.03160798 -70.62326626 72.81423849 -70.65525055 65.59580994 C-70.67098583 62.23313886 -70.6936181 58.87087512 -70.72631836 55.50830078 C-70.76301543 51.63568099 -70.77979832 47.76338793 -70.79296875 43.890625 C-70.80845261 42.705755 -70.82393646 41.52088501 -70.83988953 40.30010986 C-70.84263099 26.5043409 -67.71586635 14.91164859 -58.375 4.5 C-42.75352102 -9.99345096 -17.34485685 -12.1413998 0 0 Z " fill="#FEF9F8" transform="translate(122.5,217.75)"/>
<path d="M0 0 C4.91795792 3.38977891 8.76537163 7.53526279 11.82421875 12.6796875 C11.82421875 13.3396875 11.82421875 13.9996875 11.82421875 14.6796875 C13.14421875 14.6796875 14.46421875 14.6796875 15.82421875 14.6796875 C15.91960937 13.94878906 16.015 13.21789062 16.11328125 12.46484375 C16.93250248 9.25547708 18.05839204 7.62938211 20.19921875 5.1171875 C20.80507813 4.37339844 21.4109375 3.62960938 22.03515625 2.86328125 C29.43975884 -2.9338796 38.06137666 -3.90475 47.1796875 -3.7109375 C48.72116203 -3.70244781 48.72116203 -3.70244781 50.29377747 -3.69378662 C53.53359201 -3.67163193 56.772246 -3.62147604 60.01171875 -3.5703125 C62.22589534 -3.55022045 64.44008949 -3.53197446 66.65429688 -3.515625 C72.04506324 -3.47525985 77.43336248 -3.39692949 82.82421875 -3.3203125 C82.82421875 5.5896875 82.82421875 14.4996875 82.82421875 23.6796875 C80.84421875 24.3396875 78.86421875 24.9996875 76.82421875 25.6796875 C77.17355469 26.15277344 77.52289063 26.62585938 77.8828125 27.11328125 C81.9972175 33.09257237 83.51442246 37.99205395 82.44921875 45.2265625 C80.88957229 51.66010416 78.20128939 55.83043099 72.82421875 59.6796875 C65.34451672 63.33021417 58.47901916 64.24137056 50.25 64.0703125 C49.20015427 64.06465271 48.15030853 64.05899292 47.06864929 64.05316162 C43.75751644 64.03099964 40.44751741 63.98084188 37.13671875 63.9296875 C34.87436473 63.90959641 32.61199353 63.89135025 30.34960938 63.875 C24.84071749 63.83120114 19.33265948 63.7623157 13.82421875 63.6796875 C13.82421875 58.0696875 13.82421875 52.4596875 13.82421875 46.6796875 C9.71656542 50.78109086 9.71656542 50.78109086 6.19921875 55.1171875 C1.77255866 60.38537412 -5.34907901 64.52712738 -12.17578125 65.6796875 C-24.32366319 66.56080617 -34.01326855 65.56255915 -43.55078125 57.4296875 C-52.28959981 48.98216289 -55.54437696 40.4592219 -56.2734375 28.359375 C-56.03637593 19.42689512 -52.5642977 10.86313309 -46.0859375 4.6875 C-32.62917556 -6.91975437 -15.47599784 -9.39118002 0 0 Z M13.82421875 15.6796875 C14.82421875 19.6796875 14.82421875 19.6796875 14.82421875 19.6796875 Z M42.82421875 26.6796875 C41.49088542 29.01302083 41.49088542 29.01302083 41.82421875 31.6796875 C43.76114244 34.70002487 43.76114244 34.70002487 46.82421875 36.6796875 C50.07460364 36.62576557 50.07460364 36.62576557 52.82421875 35.6796875 C54.12480939 32.94783154 54.12480939 32.94783154 54.82421875 29.6796875 C53.83421875 28.0296875 52.84421875 26.3796875 51.82421875 24.6796875 C59.08421875 24.6796875 66.34421875 24.6796875 73.82421875 24.6796875 C73.82421875 24.3496875 73.82421875 24.0196875 73.82421875 23.6796875 C69.59518255 23.59243091 65.36637863 23.5392086 61.13671875 23.4921875 C59.93853516 23.46705078 58.74035156 23.44191406 57.50585938 23.41601562 C55.77045898 23.40151367 55.77045898 23.40151367 54 23.38671875 C52.4053894 23.36315308 52.4053894 23.36315308 50.77856445 23.33911133 C47.39117726 23.72960841 45.54196255 24.65147968 42.82421875 26.6796875 Z M-23.98828125 25.8671875 C-25.60103909 28.32876526 -25.60918265 29.79034486 -25.17578125 32.6796875 C-24.09244792 34.59635417 -24.09244792 34.59635417 -22.17578125 35.6796875 C-19.67578125 36.34635417 -19.67578125 36.34635417 -17.17578125 35.6796875 C-15.07816091 33.57268303 -15.07816091 33.57268303 -14.17578125 30.6796875 C-14.83858508 28.24940678 -15.37687845 26.4785903 -17.17578125 24.6796875 C-19.98529611 24.38394909 -21.59207101 24.29725665 -23.98828125 25.8671875 Z M15.82421875 28.6796875 C15.82421875 29.9996875 15.82421875 31.3196875 15.82421875 32.6796875 C16.48421875 32.6796875 17.14421875 32.6796875 17.82421875 32.6796875 C17.16421875 31.3596875 16.50421875 30.0396875 15.82421875 28.6796875 Z M17.82421875 32.6796875 C16.83421875 33.1746875 16.83421875 33.1746875 15.82421875 33.6796875 C15.82421875 34.3396875 15.82421875 34.9996875 15.82421875 35.6796875 C19.78421875 35.6796875 23.74421875 35.6796875 27.82421875 35.6796875 C27.82421875 35.3496875 27.82421875 35.0196875 27.82421875 34.6796875 C24.85421875 34.6796875 21.88421875 34.6796875 18.82421875 34.6796875 C18.49421875 34.0196875 18.16421875 33.3596875 17.82421875 32.6796875 Z M12.82421875 43.6796875 C13.82421875 45.6796875 13.82421875 45.6796875 13.82421875 45.6796875 Z " fill="#FEF9F8" transform="translate(291.17578125,243.3203125)"/>
<path d="M0 0 C5.63800746 4.66102422 9.13566974 9.2582028 9.90234375 16.6484375 C10.0956182 23.03666685 8.92182777 26.85408361 5.6640625 32.3515625 C6.9840625 33.0115625 8.3040625 33.6715625 9.6640625 34.3515625 C9.6640625 43.9215625 9.6640625 53.4915625 9.6640625 63.3515625 C3.86490937 63.44385671 -1.9316521 63.523353 -7.73095703 63.57128906 C-9.69979532 63.59129037 -11.66857506 63.61850052 -13.63720703 63.65332031 C-16.48224408 63.70234781 -19.32648965 63.72464632 -22.171875 63.7421875 C-23.47250381 63.77315521 -23.47250381 63.77315521 -24.79940796 63.80474854 C-35.15606047 63.80847301 -42.75515333 59.85762079 -50.13671875 52.77734375 C-57.27819628 44.9001545 -59.69829905 36.32983592 -59.2109375 25.8515625 C-58.62625296 20.01831437 -57.26871624 15.41184853 -54.3359375 10.3515625 C-53.98660156 9.72636719 -53.63726562 9.10117188 -53.27734375 8.45703125 C-49.03017343 1.71152545 -41.77007732 -2.94687537 -34.17578125 -5.17578125 C-22.53426942 -7.11336437 -9.92367034 -7.00299144 0 0 Z M-29.3359375 25.3515625 C-29.6626482 28.42264305 -29.81732026 30.50206351 -28.2734375 33.2265625 C-25.33366626 34.93352645 -22.65722947 34.53956016 -19.3359375 34.3515625 C-19.11418817 32.89520879 -18.90895052 31.43633294 -18.7109375 29.9765625 C-18.59492188 29.16445313 -18.47890625 28.35234375 -18.359375 27.515625 C-18.35164063 26.80148437 -18.34390625 26.08734375 -18.3359375 25.3515625 C-20.27926082 22.97161882 -20.27926082 22.97161882 -23.8359375 23.1015625 C-27.39261418 22.97161882 -27.39261418 22.97161882 -29.3359375 25.3515625 Z M-16.3359375 33.3515625 C-16.3359375 33.6815625 -16.3359375 34.0115625 -16.3359375 34.3515625 C-10.3959375 34.3515625 -4.4559375 34.3515625 1.6640625 34.3515625 C1.6640625 34.0215625 1.6640625 33.6915625 1.6640625 33.3515625 C-4.2759375 33.3515625 -10.2159375 33.3515625 -16.3359375 33.3515625 Z " fill="#FEF9F9" transform="translate(437.3359375,243.6484375)"/>
<path d="M0 0 C8.09560449 5.77298496 12.47177291 12.77620325 15.2578125 22.23046875 C15.64926263 24.77709377 15.63113113 26.12639078 14.60546875 28.4921875 C12.75 30.1328125 12.75 30.1328125 10.41796875 31.7421875 C0.29212785 39.29638627 -4.14596094 49.1369482 -6.09765625 61.40234375 C-6.195625 62.09199219 -6.29359375 62.78164063 -6.39453125 63.4921875 C-15.49039478 66.99817824 -25.89362558 66.92168834 -34.95703125 63.3671875 C-44.33851669 58.82243542 -50.54238611 52.19472859 -54.64453125 42.5546875 C-54.89203125 41.5440625 -55.13953125 40.5334375 -55.39453125 39.4921875 C-55.60078125 38.76515625 -55.80703125 38.038125 -56.01953125 37.2890625 C-58.24483213 28.44349152 -57.12695464 20.99892193 -52.51953125 13.1171875 C-51.49709888 11.562698 -50.45778165 10.01904838 -49.39453125 8.4921875 C-48.79640625 7.5846875 -48.19828125 6.6771875 -47.58203125 5.7421875 C-34.74132085 -7.46540034 -15.5621022 -9.7993009 0 0 Z M-24.33203125 25.4921875 C-25.98424406 28.60223513 -25.08830482 31.14946028 -24.39453125 34.4921875 C-21.53675092 35.17712123 -21.53675092 35.17712123 -18.39453125 35.4921875 C-15.35008489 33.85465068 -15.35008489 33.85465068 -14.58203125 31.6171875 C-14.33598588 28.82867327 -14.64863502 27.69353492 -16.39453125 25.4921875 C-19.51120863 24.49750323 -21.36320817 23.95989172 -24.33203125 25.4921875 Z " fill="#FEF9F8" transform="translate(238.39453125,210.5078125)"/>
<path d="M0 0 C2.35546875 0.15234375 2.35546875 0.15234375 5 1 C6.36328125 3.50390625 6.36328125 3.50390625 7.3125 6.5625 C7.63863281 7.57441406 7.96476562 8.58632812 8.30078125 9.62890625 C8.53152344 10.41136719 8.76226562 11.19382813 9 12 C9.99 8.7 10.98 5.4 12 2 C13.32 2.33 14.64 2.66 16 3 C15.37679879 9.43974581 14.35991738 15.67572401 13 22 C10 23 10 23 7 22 C6.05078125 20.0390625 6.05078125 20.0390625 5.3125 17.625 C5.06113281 16.83351562 4.80976563 16.04203125 4.55078125 15.2265625 C4 13 4 13 4 10 C3.34 10 2.68 10 2 10 C1.67 13.3 1.34 16.6 1 20 C-0.65 20 -2.3 20 -4 20 C-2.07289294 6.3667426 -2.07289294 6.3667426 0 0 Z " fill="#FCFCFC" transform="translate(429,206)"/>
<path d="M0 0 C2.7871087 1.3631274 3.86518898 2.55277761 6 5 C6.375 8.8125 6.375 8.8125 6 12 C4.125 11.8125 4.125 11.8125 2 11 C1.33333333 9.33333333 0.66666667 7.66666667 0 6 C-1.82423512 4.75225614 -1.82423512 4.75225614 -4 5 C-6.41473019 6.41290128 -6.41473019 6.41290128 -8 9 C-8.33417929 12.6675213 -8.33417929 12.6675213 -8 16 C-6.906875 15.773125 -5.81375 15.54625 -4.6875 15.3125 C-1 15 -1 15 0.9375 16.4375 C1.288125 16.953125 1.63875 17.46875 2 18 C0.4375 19.5625 0.4375 19.5625 -2 21 C-6.02853967 20.92806179 -8.22690903 20.63067947 -11.375 18.0625 C-14.11192924 14.58870519 -14.42482142 12.41814276 -14 8 C-10.41929156 1.57941934 -7.48964493 -0.88860194 0 0 Z " fill="#FCFCFC" transform="translate(463,217)"/>
<path d="M0 0 C1.32 0 2.64 0 4 0 C4.66 6.6 5.32 13.2 6 20 C4.35 20.33 2.7 20.66 1 21 C0.63707854 17.68839717 0.28613268 14.37563512 -0.0625 11.0625 C-0.16626953 10.11697266 -0.27003906 9.17144531 -0.37695312 8.19726562 C-0.47041016 7.29814453 -0.56386719 6.39902344 -0.66015625 5.47265625 C-0.74918213 4.64000244 -0.83820801 3.80734863 -0.92993164 2.94946289 C-0.9530542 2.30614014 -0.97617676 1.66281738 -1 1 C-0.67 0.67 -0.34 0.34 0 0 Z " fill="#FDFBFC" transform="translate(413,206)"/>
<path d="M0 0 C0.33 0 0.66 0 1 0 C1 1.65 1 3.3 1 5 C0.01 5.495 0.01 5.495 -1 6 C-0.67 4.02 -0.34 2.04 0 0 Z " fill="#FFFFFF" transform="translate(432,220)"/>
<path d="" fill="#FFFFFF" transform="translate(0,0)"/>
</svg>
